<?xml version="1.0" encoding="utf-8"?>
<!-- Generator: Adobe Illustrator 27.5.0, SVG Export Plug-In . SVG Version: 6.00 Build 0)  -->
<svg version="1.1" id="Layer_1" xmlns="http://www.w3.org/2000/svg" xmlns:xlink="http://www.w3.org/1999/xlink" x="0px" y="0px"
	 viewBox="0 0 144 144" style="enable-background:new 0 0 144 144;" xml:space="preserve">
<g>
	<radialGradient id="SVGID_1_" cx="72" cy="72" r="95.4266" gradientUnits="userSpaceOnUse">
		<stop  offset="0.4462" style="stop-color:#FFFFFF"/>
		<stop  offset="0.96" style="stop-color:#F6F6F6"/>
		<stop  offset="1" style="stop-color:#F5F5F5"/>
	</radialGradient>
	<rect style="fill:url(#SVGID_1_);" width="144" height="144"/>
	<g>
		<g>
			<path style="fill:#296E0E;" d="M88.148,33.806c2.779-3.672,5.936-6.971,5.936-6.971c-11.833-3.917-20.467-0.212-24.141,5.029
				c-2.97,4.238-2.381,7.444-2.381,7.444c5.505-5.022,12.382-6.898,12.382-6.898c-5.196,2.544-11.522,8.269-11.522,8.269
				C77.3,44.91,83.447,40.014,88.148,33.806z"/>
			<path style="fill:#50A31A;" d="M74.059,25.384c0.271-4.237,1.02-8.381,1.02-8.381C63.984,20.007,59.225,27.25,59.065,33.151
				c-0.129,4.769,1.955,6.936,1.955,6.936c1.68-6.664,6.017-11.605,6.017-11.605c-2.703,4.6-4.659,12.22-4.659,12.22
				C71.36,39.446,73.598,32.552,74.059,25.384z"/>
			<path style="fill:#92E537;" d="M59.827,25.947c-1.148-3.403-1.892-6.885-1.892-6.885c-7.712,5.915-9.11,13.109-7.337,17.776
				c1.435,3.771,3.762,4.798,3.762,4.798c-0.831-5.751,0.974-11.008,0.974-11.008c-0.635,4.464,0.285,11.051,0.285,11.051
				C62.24,37.811,61.771,31.697,59.827,25.947z"/>
			<path style="fill:#296E0E;" d="M55.852,110.195c-2.78,3.672-5.938,6.969-5.938,6.969c11.836,3.918,20.468,0.215,24.142-5.029
				c2.97-4.234,2.38-7.443,2.38-7.443c-5.504,5.023-12.381,6.898-12.381,6.898c5.196-2.543,11.521-8.266,11.521-8.266
				C66.699,99.092,60.551,103.988,55.852,110.195z"/>
			<path style="fill:#50A31A;" d="M69.94,118.617c-0.272,4.236-1.021,8.381-1.021,8.381c11.097-3.004,15.856-10.246,16.015-16.148
				c0.129-4.771-1.955-6.938-1.955-6.938c-1.68,6.664-6.016,11.605-6.016,11.605c2.702-4.598,4.658-12.219,4.658-12.219
				C72.639,104.555,70.4,111.447,69.94,118.617z"/>
			<path style="fill:#92E537;" d="M84.17,118.055c1.15,3.402,1.895,6.885,1.895,6.885c7.709-5.916,9.109-13.111,7.336-17.779
				c-1.435-3.77-3.762-4.797-3.762-4.797c0.832,5.754-0.974,11.01-0.974,11.01c0.635-4.463-0.287-11.051-0.287-11.051
				C81.759,106.191,82.229,112.303,84.17,118.055z"/>
			<path style="fill:#296E0E;" d="M110.193,88.148c3.672,2.779,6.971,5.936,6.971,5.936c3.919-11.834,0.214-20.467-5.03-24.14
				c-4.236-2.97-7.44-2.382-7.44-2.382c5.02,5.503,6.896,12.381,6.896,12.381c-2.543-5.195-8.267-11.522-8.267-11.522
				C99.091,77.299,103.987,83.447,110.193,88.148z"/>
			<path style="fill:#50A31A;" d="M118.617,74.059c4.234,0.271,8.381,1.02,8.381,1.02c-3.005-11.094-10.247-15.854-16.152-16.013
				c-4.766-0.13-6.935,1.956-6.935,1.956c6.664,1.679,11.604,6.016,11.604,6.016c-4.6-2.702-12.219-4.659-12.219-4.659
				C104.555,71.36,111.449,73.598,118.617,74.059z"/>
			<path style="fill:#92E537;" d="M118.051,59.828c3.404-1.149,6.887-1.892,6.887-1.892c-5.916-7.712-13.109-9.109-17.778-7.336
				c-3.771,1.433-4.796,3.761-4.796,3.761c5.751-0.831,11.008,0.974,11.008,0.974c-4.463-0.636-11.053,0.286-11.053,0.286
				C106.189,62.239,112.301,61.771,118.051,59.828z"/>
			<path style="fill:#296E0E;" d="M33.806,55.85c-3.672-2.778-6.97-5.935-6.97-5.935c-3.918,11.833-0.213,20.465,5.029,24.14
				c4.236,2.969,7.442,2.381,7.442,2.381c-5.022-5.503-6.898-12.38-6.898-12.38c2.545,5.196,8.269,11.521,8.269,11.521
				C44.91,66.699,40.014,60.551,33.806,55.85z"/>
			<path style="fill:#50A31A;" d="M25.384,69.939c-4.235-0.27-8.381-1.02-8.381-1.02c3.005,11.097,10.247,15.854,16.15,16.015
				c4.768,0.129,6.937-1.955,6.937-1.955c-6.666-1.68-11.607-6.016-11.607-6.016c4.6,2.701,12.221,4.658,12.221,4.658
				C39.446,72.638,32.552,70.4,25.384,69.939z"/>
			<path style="fill:#92E537;" d="M25.947,84.17c-3.402,1.15-6.885,1.893-6.885,1.893c5.914,7.711,13.109,9.109,17.776,7.336
				c3.771-1.43,4.799-3.76,4.799-3.76c-5.753,0.83-11.01-0.975-11.01-0.975c4.464,0.637,11.053-0.285,11.053-0.285
				C37.811,81.76,31.699,82.227,25.947,84.17z"/>
			<path style="fill:#296E0E;" d="M110.427,56.412c4.562-0.631,9.124-0.73,9.124-0.73c-5.596-11.141-14.32-14.625-20.625-13.516
				c-5.094,0.896-6.947,3.582-6.947,3.582c7.442,0.339,13.632,3.875,13.632,3.875c-5.47-1.876-13.991-2.302-13.991-2.302
				C94.904,56.592,102.713,57.474,110.427,56.412z"/>
			<path style="fill:#50A31A;" d="M106.419,40.493c3.188-2.805,6.648-5.205,6.648-5.205c-9.971-5.721-18.459-3.966-22.743,0.095
				c-3.462,3.28-3.523,6.288-3.523,6.288c5.9-3.523,12.46-3.951,12.46-3.951c-5.163,1.342-11.935,5.346-11.935,5.346
				C94.565,48.528,101.024,45.236,106.419,40.493z"/>
			<path style="fill:#92E537;" d="M95.957,30.83c1.592-3.22,3.528-6.209,3.528-6.209c-9.634-1.269-15.71,2.831-17.755,7.386
				c-1.654,3.678-0.733,6.051-0.733,6.051c3.48-4.654,8.474-7.097,8.474-7.097c-3.606,2.707-7.613,8.017-7.613,8.017
				C89.275,40.922,93.267,36.27,95.957,30.83z"/>
			<path style="fill:#296E0E;" d="M33.572,87.588c-4.561,0.631-9.126,0.73-9.126,0.73c5.598,11.139,14.322,14.623,20.626,13.514
				c5.097-0.895,6.948-3.578,6.948-3.578c-7.442-0.342-13.634-3.877-13.634-3.877c5.473,1.877,13.994,2.299,13.994,2.299
				C49.098,87.406,41.286,86.521,33.572,87.588z"/>
			<path style="fill:#50A31A;" d="M37.58,103.506c-3.188,2.805-6.647,5.205-6.647,5.205c9.967,5.721,18.457,3.965,22.741-0.096
				c3.466-3.281,3.523-6.289,3.523-6.289c-5.9,3.523-12.46,3.953-12.46,3.953c5.161-1.34,11.936-5.344,11.936-5.344
				C49.434,95.471,42.975,98.762,37.58,103.506z"/>
			<path style="fill:#92E537;" d="M48.042,113.17c-1.595,3.219-3.532,6.207-3.532,6.207c9.638,1.27,15.715-2.83,17.759-7.381
				c1.654-3.68,0.733-6.053,0.733-6.053c-3.48,4.654-8.473,7.094-8.473,7.094c3.604-2.705,7.612-8.016,7.612-8.016
				C54.724,103.076,50.732,107.73,48.042,113.17z"/>
			<path style="fill:#296E0E;" d="M87.588,110.426c0.63,4.563,0.733,9.127,0.733,9.127c11.136-5.598,14.62-14.322,13.513-20.627
				c-0.897-5.098-3.58-6.947-3.58-6.947c-0.34,7.443-3.875,13.631-3.875,13.631c1.874-5.469,2.301-13.99,2.301-13.99
				C87.408,94.902,86.525,102.713,87.588,110.426z"/>
			<path style="fill:#50A31A;" d="M103.508,106.42c2.802,3.186,5.205,6.648,5.205,6.648c5.722-9.971,3.963-18.459-0.098-22.744
				c-3.277-3.463-6.285-3.523-6.285-3.523c3.523,5.902,3.948,12.461,3.948,12.461c-1.341-5.164-5.345-11.936-5.345-11.936
				C95.47,94.568,98.765,101.025,103.508,106.42z"/>
			<path style="fill:#92E537;" d="M113.17,95.955c3.22,1.594,6.207,3.533,6.207,3.533c1.27-9.637-2.829-15.713-7.381-17.76
				c-3.682-1.652-6.054-0.732-6.054-0.732c4.654,3.48,7.095,8.473,7.095,8.473c-2.707-3.604-8.017-7.611-8.017-7.611
				C103.078,89.273,107.729,93.266,113.17,95.955z"/>
			<path style="fill:#296E0E;" d="M56.411,33.575c-0.63-4.563-0.731-9.128-0.731-9.128c-11.137,5.598-14.62,14.322-13.515,20.625
				c0.899,5.097,3.581,6.948,3.581,6.948c0.341-7.444,3.878-13.632,3.878-13.632c-1.876,5.472-2.303,13.99-2.303,13.99
				C56.594,49.097,57.478,41.288,56.411,33.575z"/>
			<path style="fill:#50A31A;" d="M40.492,37.581c-2.803-3.187-5.204-6.647-5.204-6.647c-5.722,9.967-3.963,18.456,0.098,22.741
				c3.28,3.464,6.285,3.523,6.285,3.523c-3.523-5.9-3.951-12.46-3.951-12.46c1.342,5.162,5.347,11.934,5.347,11.934
				C48.531,49.432,45.236,42.975,40.492,37.581z"/>
			<path style="fill:#92E537;" d="M30.828,48.042c-3.219-1.593-6.205-3.53-6.205-3.53c-1.27,9.635,2.828,15.71,7.383,17.756
				c3.681,1.653,6.053,0.734,6.053,0.734c-4.656-3.48-7.098-8.475-7.098-8.475c2.708,3.606,8.02,7.614,8.02,7.614
				C40.922,54.726,36.27,50.734,30.828,48.042z"/>
		</g>
		
			<radialGradient id="SVGID_00000155857094161410209450000017895529042116778904_" cx="72.0009" cy="71.9998" r="45.9817" gradientUnits="userSpaceOnUse">
			<stop  offset="0.4462" style="stop-color:#FFFFFF"/>
			<stop  offset="0.96" style="stop-color:#F6F6F6"/>
			<stop  offset="1" style="stop-color:#F5F5F5"/>
		</radialGradient>
		<path style="fill:url(#SVGID_00000155857094161410209450000017895529042116778904_);" d="M106.694,71.999
			c0,19.163-15.532,34.694-34.693,34.694c-19.161,0-34.693-15.531-34.693-34.694c0-19.16,15.532-34.693,34.693-34.693
			C91.162,37.306,106.694,52.84,106.694,71.999z"/>
		<path style="fill:#50A31A;" d="M104.686,71.999c0,18.051-14.634,32.684-32.685,32.684S39.317,90.051,39.317,71.999
			c0-18.049,14.633-32.684,32.684-32.684S104.686,53.951,104.686,71.999z"/>
		<path style="fill:#50A31A;" d="M103.345,71.999c0,17.311-14.033,31.344-31.344,31.344c-17.31,0-31.343-14.033-31.343-31.344
			c0-17.31,14.033-31.343,31.343-31.343C89.312,40.656,103.345,54.689,103.345,71.999z"/>
		
			<radialGradient id="SVGID_00000121265913191166920880000011679502524220687270_" cx="72.001" cy="71.9987" r="28.5582" gradientUnits="userSpaceOnUse">
			<stop  offset="0.4462" style="stop-color:#FFFFFF"/>
			<stop  offset="0.96" style="stop-color:#F6F6F6"/>
			<stop  offset="1" style="stop-color:#F5F5F5"/>
		</radialGradient>
		<path style="fill:url(#SVGID_00000121265913191166920880000011679502524220687270_);" d="M100.56,71.999
			c0,15.772-12.786,28.557-28.559,28.557c-15.771,0-28.559-12.785-28.559-28.557c0-15.771,12.787-28.559,28.559-28.559
			C87.773,43.441,100.56,56.228,100.56,71.999z"/>
		<g>
			<g>
				<path style="fill:#417826;" d="M57.389,82.92h-2.342v-9.094h-3v-1.95h8.34v1.95h-2.998V82.92z"/>
				<path style="fill:#417826;" d="M62.086,82.92V71.877h2.342V82.92H62.086z"/>
				<path style="fill:#417826;" d="M71.469,82.92h-2.342v-9.094h-2.998v-1.95h8.34v1.95h-3V82.92z"/>
				<path style="fill:#417826;" d="M76.168,82.92V71.877h2.342v9.11h4.478v1.934H76.168z"/>
				<path style="fill:#417826;" d="M91.268,82.92h-6.359V71.877h6.359v1.918H87.25v2.426h3.738v1.918H87.25v2.848h4.018V82.92z"/>
			</g>
			<g>
				<path style="fill:#75C044;" d="M48.771,66.557l1.135-2.238h1.24l-1.803,3.319v2.115h-1.145v-2.078l-1.803-3.357h1.25
					L48.771,66.557z"/>
				<path style="fill:#75C044;" d="M56.764,67.029c0,0.899-0.223,1.591-0.67,2.074c-0.445,0.483-1.084,0.725-1.918,0.725
					c-0.832,0-1.471-0.242-1.918-0.725c-0.445-0.483-0.668-1.177-0.668-2.081c0-0.905,0.223-1.595,0.67-2.072
					c0.447-0.477,1.09-0.716,1.924-0.716c0.836,0,1.475,0.241,1.916,0.721C56.543,65.436,56.764,66.127,56.764,67.029z
					 M52.797,67.029c0,0.607,0.115,1.064,0.346,1.372c0.23,0.307,0.576,0.461,1.033,0.461c0.92,0,1.379-0.611,1.379-1.832
					c0-1.224-0.457-1.836-1.371-1.836c-0.459,0-0.805,0.154-1.037,0.463C52.914,65.964,52.797,66.422,52.797,67.029z"/>
				<path style="fill:#75C044;" d="M62.314,64.319v3.517c0,0.401-0.09,0.753-0.27,1.056c-0.18,0.302-0.439,0.534-0.779,0.695
					c-0.34,0.161-0.74,0.242-1.205,0.242c-0.697,0-1.24-0.179-1.627-0.537c-0.387-0.358-0.58-0.848-0.58-1.47v-3.501h1.148v3.327
					c0,0.418,0.084,0.726,0.252,0.922c0.17,0.196,0.447,0.293,0.838,0.293c0.375,0,0.648-0.099,0.818-0.295
					c0.17-0.197,0.256-0.506,0.256-0.928v-3.319H62.314z"/>
				<path style="fill:#75C044;" d="M64.797,67.668v2.085h-1.152v-5.435h1.584c0.738,0,1.285,0.135,1.639,0.403
					c0.354,0.269,0.531,0.677,0.531,1.225c0,0.319-0.088,0.604-0.264,0.853c-0.176,0.249-0.426,0.444-0.748,0.585
					c0.818,1.222,1.352,2.011,1.6,2.368h-1.279l-1.297-2.085H64.797z M64.797,66.731h0.371c0.365,0,0.633-0.061,0.807-0.182
					c0.174-0.122,0.26-0.313,0.26-0.572c0-0.258-0.088-0.441-0.266-0.55c-0.176-0.109-0.451-0.164-0.822-0.164h-0.35V66.731z"/>
			</g>
			<g>
				<path style="fill:#75C044;" d="M66.109,88.078c0,0.305-0.109,0.545-0.328,0.721c-0.221,0.176-0.525,0.264-0.916,0.264
					c-0.361,0-0.68-0.068-0.957-0.205v-0.664c0.229,0.102,0.422,0.174,0.58,0.215c0.156,0.041,0.301,0.063,0.432,0.063
					c0.158,0,0.277-0.031,0.361-0.09c0.084-0.061,0.127-0.15,0.127-0.268c0-0.066-0.02-0.125-0.057-0.178
					c-0.037-0.051-0.09-0.102-0.162-0.148c-0.072-0.049-0.217-0.125-0.438-0.229c-0.207-0.098-0.361-0.191-0.465-0.279
					c-0.104-0.09-0.186-0.193-0.246-0.313c-0.063-0.119-0.094-0.258-0.094-0.416c0-0.299,0.101-0.533,0.305-0.703
					c0.203-0.172,0.482-0.258,0.84-0.258c0.176,0,0.342,0.021,0.502,0.063c0.16,0.043,0.326,0.102,0.5,0.176l-0.231,0.557
					c-0.182-0.074-0.33-0.125-0.447-0.154c-0.117-0.029-0.234-0.045-0.348-0.045c-0.135,0-0.24,0.033-0.313,0.096
					c-0.072,0.063-0.107,0.144-0.107,0.246c0,0.064,0.014,0.119,0.043,0.166c0.029,0.047,0.076,0.092,0.141,0.137
					c0.063,0.043,0.215,0.123,0.453,0.236c0.316,0.15,0.531,0.303,0.648,0.453C66.051,87.672,66.109,87.857,66.109,88.078z"/>
				<path style="fill:#75C044;" d="M69.055,86.691c0,0.363-0.115,0.643-0.342,0.834c-0.227,0.193-0.549,0.289-0.969,0.289h-0.307
					v1.201h-0.717v-3.377h1.078c0.41,0,0.723,0.088,0.936,0.266C68.947,86.08,69.055,86.342,69.055,86.691z M67.438,87.229h0.234
					c0.221,0,0.387-0.045,0.494-0.131c0.109-0.088,0.164-0.213,0.164-0.381c0-0.168-0.045-0.291-0.137-0.371
					c-0.092-0.08-0.234-0.119-0.43-0.119h-0.326V87.229z"/>
				<path style="fill:#75C044;" d="M71.76,89.016l-0.246-0.805h-1.23l-0.244,0.805h-0.771l1.191-3.391h0.875l1.195,3.391H71.76z
					 M71.344,87.611c-0.227-0.729-0.354-1.141-0.383-1.236c-0.029-0.094-0.049-0.17-0.061-0.225
					c-0.051,0.195-0.197,0.684-0.438,1.461H71.344z"/>
				<path style="fill:#75C044;" d="M74.389,86.186c-0.27,0-0.479,0.102-0.625,0.305c-0.149,0.203-0.223,0.484-0.223,0.846
					c0,0.754,0.283,1.129,0.848,1.129c0.236,0,0.523-0.058,0.861-0.178v0.602c-0.277,0.115-0.586,0.174-0.928,0.174
					c-0.492,0-0.867-0.15-1.127-0.447c-0.26-0.299-0.391-0.726-0.391-1.283c0-0.352,0.064-0.658,0.191-0.922
					c0.129-0.266,0.313-0.467,0.551-0.608c0.24-0.142,0.52-0.213,0.842-0.213c0.328,0,0.658,0.08,0.988,0.238l-0.23,0.582
					c-0.127-0.061-0.254-0.111-0.381-0.156C74.637,86.209,74.512,86.186,74.389,86.186z"/>
				<path style="fill:#75C044;" d="M77.912,89.016h-1.943v-3.377h1.943v0.588h-1.229v0.74h1.145v0.586h-1.145v0.871h1.229V89.016z"
					/>
				<path style="fill:#75C044;" d="M82.613,89.016h-0.715v-1.457h-1.336v1.457h-0.717v-3.377h0.717v1.324h1.336v-1.324h0.715V89.016
					z"/>
				<path style="fill:#75C044;" d="M85.408,89.016h-1.943v-3.377h1.943v0.588H84.18v0.74h1.145v0.586H84.18v0.871h1.229V89.016z"/>
				<path style="fill:#75C044;" d="M86.83,87.721v1.295h-0.717v-3.377h0.984c0.459,0,0.799,0.084,1.017,0.252
					c0.221,0.166,0.332,0.42,0.332,0.76c0,0.199-0.055,0.375-0.164,0.529c-0.109,0.156-0.266,0.277-0.465,0.365
					c0.508,0.758,0.84,1.248,0.992,1.471h-0.793l-0.807-1.295H86.83z M86.83,87.139h0.23c0.227,0,0.393-0.039,0.502-0.113
					c0.107-0.076,0.16-0.195,0.16-0.355c0-0.16-0.055-0.275-0.164-0.342c-0.109-0.068-0.281-0.102-0.512-0.102H86.83V87.139z"/>
				<path style="fill:#75C044;" d="M91.18,89.016h-1.943v-3.377h1.943v0.588h-1.229v0.74h1.145v0.586h-1.145v0.871h1.229V89.016z"/>
			</g>
			<g>
				<path style="fill:#296E0E;" d="M91.914,64.655c1.551-2.046,3.311-3.886,3.311-3.886c-6.599-2.185-11.41-0.119-13.459,2.803
					c-1.654,2.363-1.327,4.15-1.327,4.15c3.067-2.798,6.901-3.844,6.901-3.844c-2.896,1.417-6.422,4.607-6.422,4.607
					C85.865,70.846,89.295,68.116,91.914,64.655z"/>
				<path style="fill:#50A31A;" d="M84.061,59.96c0.15-2.362,0.568-4.672,0.568-4.672c-6.188,1.674-8.84,5.712-8.928,9.004
					c-0.072,2.658,1.09,3.866,1.09,3.866c0.937-3.715,3.354-6.469,3.354-6.469c-1.506,2.563-2.597,6.813-2.597,6.813
					C82.556,67.8,83.803,63.956,84.061,59.96z"/>
				<path style="fill:#92E537;" d="M76.125,60.275c-0.64-1.899-1.055-3.839-1.055-3.839c-4.299,3.297-5.078,7.309-4.09,9.912
					c0.798,2.102,2.099,2.674,2.099,2.674c-0.465-3.206,0.542-6.138,0.542-6.138c-0.355,2.489,0.158,6.163,0.158,6.163
					C77.47,66.888,77.211,63.48,76.125,60.275z"/>
			</g>
		</g>
	</g>
</g>
</svg>
